<?xml version="1.0" encoding="utf-8"?>
<!-- Generator: Adobe Illustrator 20.0.0, SVG Export Plug-In . SVG Version: 6.00 Build 0)  -->
<svg version="1.1" id="Calque_1" xmlns="http://www.w3.org/2000/svg" xmlns:xlink="http://www.w3.org/1999/xlink" x="0px" y="0px"
	 viewBox="0 0 400 400" style="enable-background:new 0 0 400 400;" xml:space="preserve">
<style type="text/css">
	.st0{fill:#F95058;}
	.st1{fill:#F66957;}
	.st2{fill:#89003E;}
	.st3{fill:#5864DB;}
	.st4{fill:#8cc9f0;}
	.st5{fill:#ffffff;}
</style>
<g>
	<path class="st4" d="M223,258c6.4,2.7,13.3,4,20.5,4c7.5,0,14.3-1.3,20.4-4c6.2-2.7,11.7-6.4,16.3-11c4.6-4.6,8.2-10.1,10.8-16.3
		c2.6-6.3,3.9-13.2,3.9-20.4c0-7.3-1.3-14.3-3.9-20.7c-2.6-6.4-6.2-11.9-10.7-16.5c-4.6-4.6-10.1-8.3-16.3-11c-6.1-2.6-13-4-20.4-4
		c-7.2,0-14.2,1.4-20.5,4c-6.4,2.7-12,6.4-16.6,11c-4.6,4.6-8.3,10.2-11,16.6c-2.1,5-3.4,10.4-3.8,16v9.2c0.4,5.6,1.7,10.9,3.8,15.7
		c2.7,6.3,6.4,11.8,11,16.4C211,251.6,216.6,255.3,223,258z"/>
	<path class="st5" d="M153.2,349.5c3.3-8.2,5-18,5-29.2V4.9C67.5,23.9-0.5,104.3-0.5,200.6c0,84.7,52.7,157.1,127.1,186.3
		C134.4,377.7,150.5,356.2,153.2,349.5z"/>
	<path class="st5" d="M199.5,0.6c-2.7,0-5.5,0.1-8.2,0.2v144.6c2.7-2.4,5.5-4.6,8.5-6.6c6.2-4.1,13.1-7.3,20.6-9.7
		c7.6-2.4,15.7-3.6,24.1-3.6c11.6,0,22.7,2.2,33,6.5c10.2,4.3,19.1,10.3,26.7,17.9c7.5,7.5,13.6,16.6,17.9,26.9
		c4.3,10.3,6.5,21.6,6.5,33.5c0,11.7-2.2,22.8-6.5,33.1c-4.3,10.3-10.3,19.3-17.9,26.9c-7.6,7.5-16.6,13.6-26.9,17.9
		c-10.3,4.3-21.6,6.5-33.5,6.5c-16.5,0-31.4-4.4-44.4-12.9c-2.8-1.9-5.5-3.9-7.9-5.9v43.8c0,16-2.4,30.4-7.2,42.8
		c-3.8,9.8-13.9,24.7-22.1,34.8c12.1,2.3,24.5,3.5,37.2,3.5c110.5,0,200-89.5,200-200S310,0.6,199.5,0.6z"/>
</g>
</svg>
